<svg xmlns="http://www.w3.org/2000/svg" width="1024" height="1024" viewBox="0 0 1024 1024" role="img" aria-label="Synology Torrent Router icon">
  <defs>
    <linearGradient id="bg" x1="128" y1="92" x2="896" y2="932" gradientUnits="userSpaceOnUse">
      <stop offset="0" stop-color="#102a3a"/>
      <stop offset="1" stop-color="#08131f"/>
    </linearGradient>
    <linearGradient id="arrow" x1="512" y1="154" x2="512" y2="568" gradientUnits="userSpaceOnUse">
      <stop offset="0" stop-color="#7ee7ff"/>
      <stop offset="1" stop-color="#15c6d6"/>
    </linearGradient>
    <linearGradient id="tray" x1="216" y1="516" x2="808" y2="842" gradientUnits="userSpaceOnUse">
      <stop offset="0" stop-color="#ffffff"/>
      <stop offset="1" stop-color="#c8ddeb"/>
    </linearGradient>
    <linearGradient id="tray-top" x1="228" y1="510" x2="780" y2="662" gradientUnits="userSpaceOnUse">
      <stop offset="0" stop-color="#eff8ff"/>
      <stop offset="1" stop-color="#d5e7f2"/>
    </linearGradient>
    <filter id="soft-shadow" x="-20%" y="-20%" width="140%" height="140%">
      <feDropShadow dx="0" dy="26" stdDeviation="26" flood-color="#000000" flood-opacity="0.34"/>
    </filter>
  </defs>
  <rect width="1024" height="1024" rx="224" fill="url(#bg)"/>
  <circle cx="780" cy="230" r="138" fill="#1fc8dc" opacity="0.08"/>
  <circle cx="238" cy="790" r="184" fill="#7ee7ff" opacity="0.07"/>
  <g filter="url(#soft-shadow)">
    <path d="M300 520 h424 c50 0 92 40 96 90 l18 206 c5 58 -40 108 -98 108 H284 c-58 0 -103 -50 -98 -108 l18 -206 c4 -50 46 -90 96 -90z" fill="url(#tray)"/>
    <path d="M300 520 h424 c50 0 92 40 96 90 l5 56 H199 l5 -56 c4 -50 46 -90 96 -90z" fill="url(#tray-top)"/>
    <path d="M308 480 h168 c32 0 61 17 77 45 l28 49 H246 l12 -35 c8 -35 20 -59 50 -59z" fill="#eef8ff"/>
  </g>
  <path d="M512 152 c-48 0 -87 39 -87 87 v198 H326 c-34 0 -51 41 -27 65 l184 184 c16 16 42 16 58 0 l184 -184 c24 -24 7 -65 -27 -65 h-99 V239 c0 -48 -39 -87 -87 -87z" fill="url(#arrow)" filter="url(#soft-shadow)"/>
  <path d="M392 760 h240" fill="none" stroke="#819caf" stroke-width="34" stroke-linecap="round" opacity="0.52"/>
  <circle cx="724" cy="760" r="22" fill="#8ee56b"/>
</svg>
